<svg xmlns="http://www.w3.org/2000/svg" viewBox="0 0 480 280" fill="none" role="img" aria-hidden="true">
  <rect width="480" height="280" fill="#152a4a"/>
  <rect x="0" y="200" width="480" height="80" fill="#1a3358"/>
  <rect x="80" y="170" width="320" height="12" fill="#243d66" stroke="#4F81BD" stroke-width="1"/>
  <rect x="80" y="182" width="8" height="28" fill="#4F81BD"/>
  <rect x="392" y="182" width="8" height="28" fill="#4F81BD"/>
  <rect x="60" y="130" width="72" height="48" rx="4" fill="#1F497D" stroke="#4BACC6" stroke-width="1.5"/>
  <circle cx="96" cy="148" r="10" fill="#0f2340" stroke="#4BACC6" stroke-width="1.2"/>
  <rect x="88" y="162" width="16" height="6" rx="1" fill="#4BACC6" opacity="0.6"/>
  <rect x="200" y="95" width="100" height="70" rx="6" fill="#243d66" stroke="#4BACC6" stroke-width="1.5"/>
  <rect x="218" y="112" width="64" height="36" rx="3" fill="#0f2340" stroke="#4F81BD" stroke-width="1"/>
  <text x="250" y="136" text-anchor="middle" fill="#4BACC6" font-family="monospace" font-size="11" font-weight="700">AI-LPR</text>
  <path d="M132 154 L200 130" stroke="#4BACC6" stroke-width="1.5" opacity="0.6"/>
  <path d="M300 130 L360 150" stroke="#4BACC6" stroke-width="1.5" opacity="0.6"/>
  <rect x="348" y="118" width="64" height="52" rx="4" fill="#1a3358" stroke="#4BACC6" stroke-width="1.2"/>
  <rect x="360" y="132" width="40" height="24" rx="2" fill="#243d66"/>
  <circle cx="372" cy="144" r="3" fill="#4BACC6"/>
  <circle cx="388" cy="144" r="3" fill="#4BACC6" opacity="0.5"/>
</svg>
