<svg xmlns="http://www.w3.org/2000/svg" viewBox="0 0 480 280" fill="none" role="img" aria-hidden="true">
  <rect width="480" height="280" fill="#152a4a"/>
  <rect x="168" y="36" width="144" height="208" rx="18" fill="#1a3358" stroke="#4BACC6" stroke-width="2"/>
  <rect x="184" y="56" width="112" height="168" rx="4" fill="#0f2340"/>
  <rect x="194" y="68" width="92" height="14" rx="3" fill="#243d66"/>
  <rect x="194" y="90" width="92" height="48" rx="4" fill="#1F497D" stroke="#4F81BD" stroke-width="1"/>
  <rect x="204" y="102" width="40" height="6" rx="1" fill="#4BACC6" opacity="0.7"/>
  <rect x="204" y="114" width="60" height="5" rx="1" fill="#4F81BD" opacity="0.5"/>
  <rect x="194" y="148" width="42" height="42" rx="4" fill="#243d66" stroke="#4BACC6" stroke-width="1"/>
  <rect x="244" y="148" width="42" height="42" rx="4" fill="#243d66" stroke="#4F81BD" stroke-width="1"/>
  <rect x="194" y="198" width="92" height="18" rx="9" fill="#4BACC6" opacity="0.85"/>
  <circle cx="240" cy="48" r="4" fill="#1a3358" stroke="#4BACC6" stroke-width="1"/>
  <rect x="60" y="110" width="72" height="40" rx="4" fill="#243d66" stroke="rgba(79,129,189,0.35)" stroke-width="1"/>
  <rect x="348" y="100" width="72" height="40" rx="4" fill="#243d66" stroke="rgba(79,129,189,0.35)" stroke-width="1"/>
  <path d="M132 130 L168 120 M348 120 L312 130" stroke="#4BACC6" stroke-width="1.2" opacity="0.45" stroke-dasharray="4 4"/>
</svg>
